<svg width="174" height="510" viewBox="0 0 174 510" fill="none" xmlns="http://www.w3.org/2000/svg">
<g clip-path="url(#clip0_44_2216)">
<rect width="174" height="510" fill="white" fill-opacity="0.01"/>
<mask id="path-1-inside-1_44_2216" fill="white">
<path d="M0 -4.87506H186V76.1249H0V-4.87506Z"/>
</mask>
<path d="M0 -4.87506H186V76.1249H0V-4.87506Z" fill="white" fill-opacity="0.05"/>
<path d="M64.1488 42.6249H59.2198V28.0795H64.2482C65.6924 28.0795 66.9329 28.3707 67.9698 28.9531C69.0115 29.5307 69.8117 30.3617 70.3704 31.446C70.9291 32.5302 71.2085 33.8276 71.2085 35.338C71.2085 36.8532 70.9267 38.1552 70.3633 39.2443C69.8046 40.3333 68.9973 41.169 67.9414 41.7514C66.8903 42.3337 65.6261 42.6249 64.1488 42.6249ZM61.8548 40.3451H64.021C65.0342 40.3451 65.8794 40.1605 66.5565 39.7911C67.2335 39.4171 67.7425 38.8607 68.0835 38.1221C68.4244 37.3787 68.5948 36.4507 68.5948 35.338C68.5948 34.2253 68.4244 33.302 68.0835 32.5681C67.7425 31.8295 67.2383 31.2779 66.5707 30.9133C65.9078 30.544 65.0839 30.3593 64.0991 30.3593H61.8548V40.3451ZM78.4279 42.838C77.3342 42.838 76.3896 42.6107 75.5941 42.1562C74.8034 41.6969 74.195 41.0482 73.7688 40.2102C73.3427 39.3674 73.1296 38.3754 73.1296 37.2343C73.1296 36.1122 73.3427 35.1273 73.7688 34.2798C74.1997 33.4275 74.801 32.7646 75.5728 32.2911C76.3446 31.8129 77.2513 31.5738 78.293 31.5738C78.9653 31.5738 79.5998 31.6827 80.1964 31.9005C80.7977 32.1136 81.328 32.445 81.7873 32.8948C82.2513 33.3446 82.6159 33.9176 82.881 34.6136C83.1462 35.3049 83.2788 36.1287 83.2788 37.0852V37.8735H74.337V36.1406H80.8143C80.8095 35.6481 80.703 35.2102 80.4947 34.8266C80.2863 34.4384 79.9951 34.133 79.6211 33.9105C79.2518 33.6879 78.8209 33.5766 78.3285 33.5766C77.8029 33.5766 77.3413 33.7045 76.9435 33.9602C76.5458 34.2111 76.2357 34.5426 76.0131 34.9545C75.7953 35.3617 75.6841 35.8091 75.6793 36.2968V37.8096C75.6793 38.4441 75.7953 38.9886 76.0273 39.4431C76.2594 39.8929 76.5837 40.2386 77.0004 40.4801C77.417 40.7168 77.9047 40.8352 78.4634 40.8352C78.8375 40.8352 79.176 40.7831 79.479 40.6789C79.7821 40.57 80.0449 40.4114 80.2674 40.2031C80.4899 39.9947 80.658 39.7367 80.7717 39.4289L83.1722 39.6988C83.0207 40.3333 82.7319 40.8872 82.3058 41.3607C81.8844 41.8295 81.3446 42.1941 80.6864 42.4545C80.0283 42.7102 79.2754 42.838 78.4279 42.838ZM88.0249 28.0795V42.6249H85.4538V28.0795H88.0249ZM95.4982 42.838C94.4045 42.838 93.4599 42.6107 92.6644 42.1562C91.8737 41.6969 91.2653 41.0482 90.8391 40.2102C90.413 39.3674 90.1999 38.3754 90.1999 37.2343C90.1999 36.1122 90.413 35.1273 90.8391 34.2798C91.27 33.4275 91.8713 32.7646 92.6431 32.2911C93.4149 31.8129 94.3216 31.5738 95.3633 31.5738C96.0356 31.5738 96.6701 31.6827 97.2667 31.9005C97.868 32.1136 98.3983 32.445 98.8576 32.8948C99.3216 33.3446 99.6862 33.9176 99.9513 34.6136C100.217 35.3049 100.349 36.1287 100.349 37.0852V37.8735H91.4073V36.1406H97.8846C97.8799 35.6481 97.7733 35.2102 97.565 34.8266C97.3567 34.4384 97.0655 34.133 96.6914 33.9105C96.3221 33.6879 95.8912 33.5766 95.3988 33.5766C94.8732 33.5766 94.4116 33.7045 94.0138 33.9602C93.6161 34.2111 93.306 34.5426 93.0835 34.9545C92.8656 35.3617 92.7544 35.8091 92.7496 36.2968V37.8096C92.7496 38.4441 92.8656 38.9886 93.0977 39.4431C93.3297 39.8929 93.654 40.2386 94.0707 40.4801C94.4873 40.7168 94.975 40.8352 95.5337 40.8352C95.9078 40.8352 96.2463 40.7831 96.5494 40.6789C96.8524 40.57 97.1152 40.4114 97.3377 40.2031C97.5603 39.9947 97.7283 39.7367 97.842 39.4289L100.243 39.6988C100.091 40.3333 99.8022 40.8872 99.3761 41.3607C98.9547 41.8295 98.4149 42.1941 97.7567 42.4545C97.0986 42.7102 96.3458 42.838 95.4982 42.838ZM107.972 31.7158V33.7045H101.7V31.7158H107.972ZM103.249 29.1022H105.82V39.3437C105.82 39.6893 105.872 39.9545 105.976 40.1391C106.085 40.3191 106.227 40.4422 106.402 40.5085C106.577 40.5747 106.771 40.6079 106.984 40.6079C107.145 40.6079 107.292 40.5961 107.425 40.5724C107.562 40.5487 107.666 40.5274 107.737 40.5085L108.17 42.5184C108.033 42.5658 107.837 42.6178 107.581 42.6747C107.33 42.7315 107.022 42.7646 106.658 42.7741C106.014 42.793 105.434 42.696 104.918 42.4829C104.402 42.2651 103.992 41.9289 103.689 41.4744C103.391 41.0198 103.244 40.4516 103.249 39.7698V29.1022ZM113.261 42.8451C112.57 42.8451 111.947 42.722 111.393 42.4758C110.844 42.2248 110.408 41.8555 110.086 41.3678C109.769 40.8801 109.61 40.2788 109.61 39.5639C109.61 38.9483 109.724 38.4393 109.951 38.0369C110.179 37.6344 110.489 37.3124 110.882 37.071C111.275 36.8295 111.717 36.6472 112.21 36.5241C112.707 36.3962 113.221 36.3039 113.751 36.2471C114.39 36.1808 114.909 36.1216 115.306 36.0695C115.704 36.0127 115.993 35.9275 116.173 35.8139C116.358 35.6955 116.45 35.5132 116.45 35.267V35.2244C116.45 34.6893 116.291 34.275 115.974 33.9815C115.657 33.6879 115.2 33.5411 114.603 33.5411C113.974 33.5411 113.474 33.6784 113.105 33.9531C112.74 34.2277 112.494 34.552 112.366 34.9261L109.966 34.5852C110.155 33.9223 110.467 33.3683 110.903 32.9232C111.339 32.4734 111.871 32.1372 112.501 31.9147C113.131 31.6874 113.827 31.5738 114.589 31.5738C115.115 31.5738 115.638 31.6354 116.159 31.7585C116.68 31.8816 117.155 32.0852 117.586 32.3693C118.017 32.6486 118.363 33.0298 118.623 33.5127C118.888 33.9957 119.021 34.5994 119.021 35.3238V42.6249H116.549V41.1264H116.464C116.308 41.4294 116.088 41.7135 115.804 41.9786C115.524 42.239 115.172 42.4497 114.745 42.6107C114.324 42.767 113.829 42.8451 113.261 42.8451ZM113.929 40.9559C114.445 40.9559 114.892 40.8541 115.271 40.6505C115.65 40.4422 115.941 40.1676 116.145 39.8266C116.353 39.4857 116.457 39.114 116.457 38.7116V37.4261C116.377 37.4924 116.239 37.5539 116.045 37.6107C115.856 37.6676 115.643 37.7173 115.406 37.7599C115.169 37.8025 114.935 37.8404 114.703 37.8735C114.471 37.9067 114.27 37.9351 114.099 37.9587C113.716 38.0108 113.372 38.0961 113.069 38.2144C112.766 38.3328 112.527 38.4985 112.352 38.7116C112.177 38.9199 112.089 39.1898 112.089 39.5212C112.089 39.9947 112.262 40.3522 112.608 40.5937C112.953 40.8352 113.394 40.9559 113.929 40.9559ZM121.606 42.6249V31.7158H124.099V33.534H124.213C124.412 32.9043 124.752 32.419 125.235 32.0781C125.723 31.7324 126.279 31.5596 126.904 31.5596C127.047 31.5596 127.205 31.5667 127.38 31.5809C127.56 31.5904 127.709 31.6069 127.828 31.6306V33.9957C127.719 33.9578 127.546 33.9247 127.309 33.8962C127.077 33.8631 126.852 33.8465 126.635 33.8465C126.166 33.8465 125.744 33.9483 125.37 34.1519C125.001 34.3508 124.71 34.6278 124.497 34.9829C124.284 35.338 124.177 35.7476 124.177 36.2116V42.6249H121.606Z" fill="#EDEDED"/>
<path d="M0 -4.87506V-5.87506H-1V-4.87506H0ZM0 -3.87506H186V-5.87506H0V-3.87506ZM1 76.1249V-4.87506H-1V76.1249H1Z" fill="#444444" mask="url(#path-1-inside-1_44_2216)"/>
<path d="M1.16675 77.3749H184.167V514.375H1.16675V77.3749Z" fill="white" fill-opacity="0.01" stroke="#444444"/>
<mask id="path-5-inside-2_44_2216" fill="white">
<path d="M0 76.1249H184.181V148.985H0V76.1249Z"/>
</mask>
<path d="M184.181 147.985H0V149.985H184.181V147.985Z" fill="#444444" mask="url(#path-5-inside-2_44_2216)"/>
<path d="M72.6875 140.375C71.2781 140.375 70.0712 139.798 69.0667 138.644C68.0622 137.489 67.5608 136.104 67.5625 134.486V96.2083H65V90.3194H77.8125V87.3749H93.1875V90.3194H106V96.2083H103.438V134.486C103.438 136.105 102.935 137.492 101.931 138.647C100.926 139.801 99.7202 140.377 98.3125 140.375H72.6875ZM77.8125 128.597H82.9375V102.097H77.8125V128.597ZM88.0625 128.597H93.1875V102.097H88.0625V128.597Z" fill="#EDEDED"/>
<mask id="path-8-inside-3_44_2216" fill="white">
<path d="M0 149.015H184.181V221.875H0V149.015Z"/>
</mask>
<path d="M184.181 220.875H0V222.875H184.181V220.875Z" fill="#444444" mask="url(#path-8-inside-3_44_2216)"/>
<path d="M72.6875 214.375C71.2781 214.375 70.0712 213.798 69.0667 212.644C68.0622 211.489 67.5608 210.104 67.5625 208.486V170.208H65V164.319H77.8125V161.375H93.1875V164.319H106V170.208H103.438V208.486C103.438 210.105 102.935 211.492 101.931 212.647C100.926 213.801 99.7202 214.377 98.3125 214.375H72.6875ZM77.8125 202.597H82.9375V176.097H77.8125V202.597ZM88.0625 202.597H93.1875V176.097H88.0625V202.597Z" fill="#EDEDED"/>
<mask id="path-11-inside-4_44_2216" fill="white">
<path d="M0 442.015H184.181V514.875H0V442.015Z"/>
</mask>
<path d="M184.181 513.875H0V515.875H184.181V513.875Z" fill="#444444" mask="url(#path-11-inside-4_44_2216)"/>
<path d="M72.6875 498.125C71.2781 498.125 70.0712 497.548 69.0667 496.394C68.0622 495.239 67.5608 493.854 67.5625 492.236V453.958H65V448.069H77.8125V445.125H93.1875V448.069H106V453.958H103.438V492.236C103.438 493.855 102.935 495.242 101.931 496.397C100.926 497.551 99.7202 498.127 98.3125 498.125H72.6875ZM77.8125 486.347H82.9375V459.847H77.8125V486.347ZM88.0625 486.347H93.1875V459.847H88.0625V486.347Z" fill="#EDEDED"/>
<mask id="path-14-inside-5_44_2216" fill="white">
<path d="M0 369.015H184.181V441.875H0V369.015Z"/>
</mask>
<path d="M184.181 440.875H0V442.875H184.181V440.875Z" fill="#444444" mask="url(#path-14-inside-5_44_2216)"/>
<path d="M72.6875 425.125C71.2781 425.125 70.0712 424.548 69.0667 423.394C68.0622 422.239 67.5608 420.854 67.5625 419.236V380.958H65V375.069H77.8125V372.125H93.1875V375.069H106V380.958H103.438V419.236C103.438 420.855 102.935 422.242 101.931 423.397C100.926 424.551 99.7202 425.127 98.3125 425.125H72.6875ZM77.8125 413.347H82.9375V386.847H77.8125V413.347ZM88.0625 413.347H93.1875V386.847H88.0625V413.347Z" fill="#EDEDED"/>
<mask id="path-17-inside-6_44_2216" fill="white">
<path d="M0 296.015H184.181V368.875H0V296.015Z"/>
</mask>
<path d="M184.181 367.875H0V369.875H184.181V367.875Z" fill="#444444" mask="url(#path-17-inside-6_44_2216)"/>
<path d="M72.6875 352.125C71.2781 352.125 70.0712 351.548 69.0667 350.394C68.0622 349.239 67.5608 347.854 67.5625 346.236V307.958H65V302.069H77.8125V299.125H93.1875V302.069H106V307.958H103.438V346.236C103.438 347.855 102.935 349.242 101.931 350.397C100.926 351.551 99.7202 352.127 98.3125 352.125H72.6875ZM77.8125 340.347H82.9375V313.847H77.8125V340.347ZM88.0625 340.347H93.1875V313.847H88.0625V340.347Z" fill="#EDEDED"/>
<mask id="path-20-inside-7_44_2216" fill="white">
<path d="M0 222.015H184.181V294.875H0V222.015Z"/>
</mask>
<path d="M184.181 293.875H0V295.875H184.181V293.875Z" fill="#444444" mask="url(#path-20-inside-7_44_2216)"/>
<path d="M72.6875 278.125C71.2781 278.125 70.0712 277.548 69.0667 276.394C68.0622 275.239 67.5608 273.854 67.5625 272.236V233.958H65V228.069H77.8125V225.125H93.1875V228.069H106V233.958H103.438V272.236C103.438 273.855 102.935 275.242 101.931 276.397C100.926 277.551 99.7202 278.127 98.3125 278.125H72.6875ZM77.8125 266.347H82.9375V239.847H77.8125V266.347ZM88.0625 266.347H93.1875V239.847H88.0625V266.347Z" fill="#EDEDED"/>
</g>
<defs>
<clipPath id="clip0_44_2216">
<rect width="174" height="510" fill="white"/>
</clipPath>
</defs>
</svg>
