<svg width="30" height="33" viewBox="0 0 30 33" fill="none" xmlns="http://www.w3.org/2000/svg">
<path d="M21.6667 24.75V19.8H10V13.2H21.6667V8.25L30 16.5L21.6667 24.75ZM18.3333 0C19.2174 0 20.0652 0.347677 20.6904 0.966547C21.3155 1.58542 21.6667 2.42479 21.6667 3.3V6.6H18.3333V3.3H3.33333V29.7H18.3333V26.4H21.6667V29.7C21.6667 30.5752 21.3155 31.4146 20.6904 32.0335C20.0652 32.6523 19.2174 33 18.3333 33H3.33333C2.44928 33 1.60143 32.6523 0.976311 32.0335C0.351189 31.4146 0 30.5752 0 29.7V3.3C0 2.42479 0.351189 1.58542 0.976311 0.966547C1.60143 0.347677 2.44928 0 3.33333 0H18.3333Z" fill="#444444"/>
</svg>
