<svg width="53" height="50" viewBox="0 0 53 50" fill="none" xmlns="http://www.w3.org/2000/svg">
<path d="M35.0909 20.6292C41.5891 20.6292 46.7878 25.7865 46.7878 32.2331C46.7878 34.5023 46.1379 36.6426 44.9942 38.4219L53.0001 46.4157L49.3871 50L41.2772 42.0835C39.4837 43.1924 37.3523 43.837 35.0909 43.837C28.5926 43.837 23.3939 38.6797 23.3939 32.2331C23.3939 25.7865 28.5926 20.6292 35.0909 20.6292ZM35.0909 25.7865C33.3674 25.7865 31.7145 26.4657 30.4959 27.6747C29.2772 28.8836 28.5926 30.5234 28.5926 32.2331C28.5926 33.9429 29.2772 35.5826 30.4959 36.7916C31.7145 38.0005 33.3674 38.6797 35.0909 38.6797C36.8143 38.6797 38.4672 38.0005 39.6858 36.7916C40.9045 35.5826 41.5891 33.9429 41.5891 32.2331C41.5891 30.5234 40.9045 28.8836 39.6858 27.6747C38.4672 26.4657 36.8143 25.7865 35.0909 25.7865ZM20.7946 0C23.5522 0 26.1967 1.08671 28.1466 3.02107C30.0965 4.95544 31.1919 7.57899 31.1919 10.3146C31.1919 12.6612 30.3861 14.8272 29.0604 16.5807C26.825 17.4059 24.8236 18.721 23.16 20.3713L20.7946 20.6292C18.0371 20.6292 15.3925 19.5425 13.4427 17.6081C11.4928 15.6738 10.3974 13.0502 10.3974 10.3146C10.3974 7.57899 11.4928 4.95544 13.4427 3.02107C15.3925 1.08671 18.0371 0 20.7946 0ZM0.00012207 41.2584V36.1011C0.00012207 30.6343 8.60385 26.1475 19.495 25.7865C18.6632 27.7978 18.1953 29.9639 18.1953 32.2331C18.1953 35.5596 19.1831 38.6797 20.7946 41.2584H0.00012207Z" fill="#EDEDED"/>
</svg>
